<svg id="visual" viewBox="0 0 1280 200" width="1280" height="200" xmlns="http://www.w3.org/2000/svg" xmlns:xlink="http://www.w3.org/1999/xlink" version="1.1"><rect x="0" y="0" width="1280" height="200" fill="#191825"></rect><path d="M0 161L58 161L58 121L116 121L116 148L175 148L175 118L233 118L233 123L291 123L291 132L349 132L349 118L407 118L407 140L465 140L465 123L524 123L524 129L582 129L582 152L640 152L640 122L698 122L698 125L756 125L756 164L815 164L815 157L873 157L873 134L931 134L931 129L989 129L989 138L1047 138L1047 163L1105 163L1105 138L1164 138L1164 129L1222 129L1222 166L1280 166L1280 163L1280 0L1280 0L1222 0L1222 0L1164 0L1164 0L1105 0L1105 0L1047 0L1047 0L989 0L989 0L931 0L931 0L873 0L873 0L815 0L815 0L756 0L756 0L698 0L698 0L640 0L640 0L582 0L582 0L524 0L524 0L465 0L465 0L407 0L407 0L349 0L349 0L291 0L291 0L233 0L233 0L175 0L175 0L116 0L116 0L58 0L58 0L0 0Z" fill="#865dff"></path><path d="M0 127L58 127L58 128L116 128L116 137L175 137L175 126L233 126L233 110L291 110L291 100L349 100L349 130L407 130L407 134L465 134L465 125L524 125L524 136L582 136L582 96L640 96L640 111L698 111L698 103L756 103L756 112L815 112L815 105L873 105L873 138L931 138L931 115L989 115L989 132L1047 132L1047 138L1105 138L1105 95L1164 95L1164 94L1222 94L1222 106L1280 106L1280 113L1280 0L1280 0L1222 0L1222 0L1164 0L1164 0L1105 0L1105 0L1047 0L1047 0L989 0L989 0L931 0L931 0L873 0L873 0L815 0L815 0L756 0L756 0L698 0L698 0L640 0L640 0L582 0L582 0L524 0L524 0L465 0L465 0L407 0L407 0L349 0L349 0L291 0L291 0L233 0L233 0L175 0L175 0L116 0L116 0L58 0L58 0L0 0Z" fill="#9d63ff"></path><path d="M0 105L58 105L58 102L116 102L116 80L175 80L175 105L233 105L233 115L291 115L291 103L349 103L349 99L407 99L407 103L465 103L465 90L524 90L524 114L582 114L582 102L640 102L640 85L698 85L698 79L756 79L756 73L815 73L815 91L873 91L873 105L931 105L931 79L989 79L989 92L1047 92L1047 104L1105 104L1105 78L1164 78L1164 73L1222 73L1222 73L1280 73L1280 115L1280 0L1280 0L1222 0L1222 0L1164 0L1164 0L1105 0L1105 0L1047 0L1047 0L989 0L989 0L931 0L931 0L873 0L873 0L815 0L815 0L756 0L756 0L698 0L698 0L640 0L640 0L582 0L582 0L524 0L524 0L465 0L465 0L407 0L407 0L349 0L349 0L291 0L291 0L233 0L233 0L175 0L175 0L116 0L116 0L58 0L58 0L0 0Z" fill="#b26aff"></path><path d="M0 83L58 83L58 53L116 53L116 86L175 86L175 73L233 73L233 56L291 56L291 64L349 64L349 61L407 61L407 80L465 80L465 81L524 81L524 79L582 79L582 86L640 86L640 79L698 79L698 53L756 53L756 87L815 87L815 59L873 59L873 61L931 61L931 55L989 55L989 71L1047 71L1047 53L1105 53L1105 62L1164 62L1164 76L1222 76L1222 71L1280 71L1280 75L1280 0L1280 0L1222 0L1222 0L1164 0L1164 0L1105 0L1105 0L1047 0L1047 0L989 0L989 0L931 0L931 0L873 0L873 0L815 0L815 0L756 0L756 0L698 0L698 0L640 0L640 0L582 0L582 0L524 0L524 0L465 0L465 0L407 0L407 0L349 0L349 0L291 0L291 0L233 0L233 0L175 0L175 0L116 0L116 0L58 0L58 0L0 0Z" fill="#c472ff"></path><path d="M0 58L58 58L58 40L116 40L116 58L175 58L175 58L233 58L233 52L291 52L291 52L349 52L349 64L407 64L407 56L465 56L465 58L524 58L524 59L582 59L582 35L640 35L640 65L698 65L698 55L756 55L756 39L815 39L815 53L873 53L873 48L931 48L931 46L989 46L989 47L1047 47L1047 56L1105 56L1105 49L1164 49L1164 47L1222 47L1222 46L1280 46L1280 56L1280 0L1280 0L1222 0L1222 0L1164 0L1164 0L1105 0L1105 0L1047 0L1047 0L989 0L989 0L931 0L931 0L873 0L873 0L815 0L815 0L756 0L756 0L698 0L698 0L640 0L640 0L582 0L582 0L524 0L524 0L465 0L465 0L407 0L407 0L349 0L349 0L291 0L291 0L233 0L233 0L175 0L175 0L116 0L116 0L58 0L58 0L0 0Z" fill="#d47bff"></path><path d="M0 26L58 26L58 10L116 10L116 18L175 18L175 20L233 20L233 24L291 24L291 15L349 15L349 33L407 33L407 18L465 18L465 18L524 18L524 22L582 22L582 26L640 26L640 18L698 18L698 32L756 32L756 25L815 25L815 26L873 26L873 22L931 22L931 22L989 22L989 32L1047 32L1047 42L1105 42L1105 25L1164 25L1164 39L1222 39L1222 35L1280 35L1280 10L1280 0L1280 0L1222 0L1222 0L1164 0L1164 0L1105 0L1105 0L1047 0L1047 0L989 0L989 0L931 0L931 0L873 0L873 0L815 0L815 0L756 0L756 0L698 0L698 0L640 0L640 0L582 0L582 0L524 0L524 0L465 0L465 0L407 0L407 0L349 0L349 0L291 0L291 0L233 0L233 0L175 0L175 0L116 0L116 0L58 0L58 0L0 0Z" fill="#e384ff"></path></svg>