<svg id="visual" viewBox="0 0 1280 250" width="1280" height="250" xmlns="http://www.w3.org/2000/svg" xmlns:xlink="http://www.w3.org/1999/xlink" version="1.1"><rect x="0" y="0" width="1280" height="250" fill="#191825"></rect><path d="M0 201L58 201L58 151L116 151L116 185L175 185L175 147L233 147L233 155L291 155L291 166L349 166L349 148L407 148L407 176L465 176L465 154L524 154L524 162L582 162L582 190L640 190L640 153L698 153L698 156L756 156L756 206L815 206L815 196L873 196L873 167L931 167L931 162L989 162L989 173L1047 173L1047 203L1105 203L1105 172L1164 172L1164 161L1222 161L1222 208L1280 208L1280 204L1280 0L1280 0L1222 0L1222 0L1164 0L1164 0L1105 0L1105 0L1047 0L1047 0L989 0L989 0L931 0L931 0L873 0L873 0L815 0L815 0L756 0L756 0L698 0L698 0L640 0L640 0L582 0L582 0L524 0L524 0L465 0L465 0L407 0L407 0L349 0L349 0L291 0L291 0L233 0L233 0L175 0L175 0L116 0L116 0L58 0L58 0L0 0Z" fill="#865dff"></path><path d="M0 159L58 159L58 160L116 160L116 172L175 172L175 158L233 158L233 138L291 138L291 126L349 126L349 163L407 163L407 168L465 168L465 157L524 157L524 170L582 170L582 121L640 121L640 140L698 140L698 128L756 128L756 141L815 141L815 132L873 132L873 173L931 173L931 144L989 144L989 165L1047 165L1047 173L1105 173L1105 119L1164 119L1164 118L1222 118L1222 133L1280 133L1280 142L1280 0L1280 0L1222 0L1222 0L1164 0L1164 0L1105 0L1105 0L1047 0L1047 0L989 0L989 0L931 0L931 0L873 0L873 0L815 0L815 0L756 0L756 0L698 0L698 0L640 0L640 0L582 0L582 0L524 0L524 0L465 0L465 0L407 0L407 0L349 0L349 0L291 0L291 0L233 0L233 0L175 0L175 0L116 0L116 0L58 0L58 0L0 0Z" fill="#9d63ff"></path><path d="M0 132L58 132L58 128L116 128L116 101L175 101L175 132L233 132L233 144L291 144L291 129L349 129L349 124L407 124L407 129L465 129L465 113L524 113L524 143L582 143L582 127L640 127L640 106L698 106L698 99L756 99L756 92L815 92L815 114L873 114L873 132L931 132L931 99L989 99L989 115L1047 115L1047 130L1105 130L1105 98L1164 98L1164 91L1222 91L1222 91L1280 91L1280 144L1280 0L1280 0L1222 0L1222 0L1164 0L1164 0L1105 0L1105 0L1047 0L1047 0L989 0L989 0L931 0L931 0L873 0L873 0L815 0L815 0L756 0L756 0L698 0L698 0L640 0L640 0L582 0L582 0L524 0L524 0L465 0L465 0L407 0L407 0L349 0L349 0L291 0L291 0L233 0L233 0L175 0L175 0L116 0L116 0L58 0L58 0L0 0Z" fill="#b26aff"></path><path d="M0 104L58 104L58 67L116 67L116 108L175 108L175 92L233 92L233 70L291 70L291 80L349 80L349 77L407 77L407 100L465 100L465 101L524 101L524 99L582 99L582 108L640 108L640 99L698 99L698 67L756 67L756 109L815 109L815 74L873 74L873 76L931 76L931 68L989 68L989 89L1047 89L1047 67L1105 67L1105 78L1164 78L1164 96L1222 96L1222 89L1280 89L1280 93L1280 0L1280 0L1222 0L1222 0L1164 0L1164 0L1105 0L1105 0L1047 0L1047 0L989 0L989 0L931 0L931 0L873 0L873 0L815 0L815 0L756 0L756 0L698 0L698 0L640 0L640 0L582 0L582 0L524 0L524 0L465 0L465 0L407 0L407 0L349 0L349 0L291 0L291 0L233 0L233 0L175 0L175 0L116 0L116 0L58 0L58 0L0 0Z" fill="#c472ff"></path><path d="M0 72L58 72L58 50L116 50L116 72L175 72L175 73L233 73L233 66L291 66L291 66L349 66L349 80L407 80L407 70L465 70L465 73L524 73L524 74L582 74L582 44L640 44L640 81L698 81L698 69L756 69L756 48L815 48L815 67L873 67L873 61L931 61L931 58L989 58L989 59L1047 59L1047 70L1105 70L1105 61L1164 61L1164 59L1222 59L1222 58L1280 58L1280 70L1280 0L1280 0L1222 0L1222 0L1164 0L1164 0L1105 0L1105 0L1047 0L1047 0L989 0L989 0L931 0L931 0L873 0L873 0L815 0L815 0L756 0L756 0L698 0L698 0L640 0L640 0L582 0L582 0L524 0L524 0L465 0L465 0L407 0L407 0L349 0L349 0L291 0L291 0L233 0L233 0L175 0L175 0L116 0L116 0L58 0L58 0L0 0Z" fill="#d47bff"></path><path d="M0 33L58 33L58 13L116 13L116 23L175 23L175 26L233 26L233 30L291 30L291 19L349 19L349 41L407 41L407 23L465 23L465 23L524 23L524 28L582 28L582 33L640 33L640 23L698 23L698 41L756 41L756 32L815 32L815 33L873 33L873 28L931 28L931 28L989 28L989 40L1047 40L1047 53L1105 53L1105 31L1164 31L1164 49L1222 49L1222 44L1280 44L1280 13L1280 0L1280 0L1222 0L1222 0L1164 0L1164 0L1105 0L1105 0L1047 0L1047 0L989 0L989 0L931 0L931 0L873 0L873 0L815 0L815 0L756 0L756 0L698 0L698 0L640 0L640 0L582 0L582 0L524 0L524 0L465 0L465 0L407 0L407 0L349 0L349 0L291 0L291 0L233 0L233 0L175 0L175 0L116 0L116 0L58 0L58 0L0 0Z" fill="#e384ff"></path></svg>