<svg id="visual" viewBox="0 0 1300 150" width="1300" height="150" xmlns="http://www.w3.org/2000/svg" xmlns:xlink="http://www.w3.org/1999/xlink" version="1.1"><rect x="0" y="0" width="1300" height="150" fill="#2a2a2c"></rect><path d="M0 87L186 64L371 62L557 74L743 57L929 76L1114 87L1300 84L1300 151L1114 151L929 151L743 151L557 151L371 151L186 151L0 151Z" fill="#f5730a"></path><path d="M0 92L186 75L371 82L557 99L743 87L929 76L1114 98L1300 90L1300 151L1114 151L929 151L743 151L557 151L371 151L186 151L0 151Z" fill="#d34048"></path><path d="M0 89L186 112L371 94L557 103L743 91L929 95L1114 113L1300 111L1300 151L1114 151L929 151L743 151L557 151L371 151L186 151L0 151Z" fill="#942f5b"></path><path d="M0 113L186 105L371 125L557 109L743 125L929 116L1114 109L1300 115L1300 151L1114 151L929 151L743 151L557 151L371 151L186 151L0 151Z" fill="#4d294d"></path><path d="M0 121L186 138L371 129L557 138L743 137L929 132L1114 136L1300 122L1300 151L1114 151L929 151L743 151L557 151L371 151L186 151L0 151Z" fill="#191825"></path></svg>