<svg id="visual" viewBox="0 0 1300 160" width="1300" height="160" xmlns="http://www.w3.org/2000/svg" xmlns:xlink="http://www.w3.org/1999/xlink" version="1.1"><rect x="0" y="0" width="1300" height="160" fill="#2a2a2c"></rect><path d="M0 78L163 49L325 81L488 82L650 77L813 80L975 77L1138 64L1300 87L1300 161L1138 161L975 161L813 161L650 161L488 161L325 161L163 161L0 161Z" fill="#f5730a"></path><path d="M0 87L163 107L325 106L488 105L650 91L813 67L975 95L1138 85L1300 64L1300 161L1138 161L975 161L813 161L650 161L488 161L325 161L163 161L0 161Z" fill="#d34048"></path><path d="M0 86L163 121L325 102L488 108L650 89L813 118L975 107L1138 99L1300 85L1300 161L1138 161L975 161L813 161L650 161L488 161L325 161L163 161L0 161Z" fill="#942f5b"></path><path d="M0 131L163 108L325 113L488 115L650 110L813 122L975 108L1138 133L1300 119L1300 161L1138 161L975 161L813 161L650 161L488 161L325 161L163 161L0 161Z" fill="#4d294d"></path><path d="M0 139L163 138L325 152L488 142L650 128L813 138L975 152L1138 124L1300 130L1300 161L1138 161L975 161L813 161L650 161L488 161L325 161L163 161L0 161Z" fill="#191825"></path></svg>