<svg id="visual" viewBox="0 0 1300 160" width="1300" height="160" xmlns="http://www.w3.org/2000/svg" xmlns:xlink="http://www.w3.org/1999/xlink" version="1.1"><rect x="0" y="0" width="1300" height="160" fill="#2a2a2c"></rect><path d="M0 65L144 68L289 78L433 58L578 52L722 87L867 58L1011 81L1156 66L1300 68L1300 0L1156 0L1011 0L867 0L722 0L578 0L433 0L289 0L144 0L0 0Z" fill="#f5730a"></path><path d="M0 51L144 44L289 64L433 70L578 61L722 49L867 50L1011 48L1156 50L1300 73L1300 0L1156 0L1011 0L867 0L722 0L578 0L433 0L289 0L144 0L0 0Z" fill="#d34048"></path><path d="M0 43L144 41L289 51L433 38L578 35L722 58L867 51L1011 38L1156 57L1300 54L1300 0L1156 0L1011 0L867 0L722 0L578 0L433 0L289 0L144 0L0 0Z" fill="#942f5b"></path><path d="M0 31L144 19L289 26L433 31L578 38L722 26L867 24L1011 30L1156 36L1300 40L1300 0L1156 0L1011 0L867 0L722 0L578 0L433 0L289 0L144 0L0 0Z" fill="#4d294d"></path><path d="M0 14L144 21L289 15L433 25L578 10L722 17L867 22L1011 14L1156 21L1300 17L1300 0L1156 0L1011 0L867 0L722 0L578 0L433 0L289 0L144 0L0 0Z" fill="#191825"></path></svg>