<svg id="visual" viewBox="0 0 1298 300" width="1298" height="300" xmlns="http://www.w3.org/2000/svg" xmlns:xlink="http://www.w3.org/1999/xlink" version="1.1"><rect x="0" y="0" width="1298" height="300" fill="#2a2a2c"></rect><path d="M0 221L185 193L371 190L556 205L742 184L927 208L1113 222L1298 218L1298 301L1113 301L927 301L742 301L556 301L371 301L185 301L0 301Z" fill="#f5730a"></path><path d="M0 228L185 207L371 215L556 237L742 221L927 208L1113 236L1298 225L1298 301L1113 301L927 301L742 301L556 301L371 301L185 301L0 301Z" fill="#d34048"></path><path d="M0 224L185 253L371 231L556 242L742 227L927 232L1113 254L1298 252L1298 301L1113 301L927 301L742 301L556 301L371 301L185 301L0 301Z" fill="#942f5b"></path><path d="M0 253L185 244L371 269L556 249L742 269L927 258L1113 249L1298 257L1298 301L1113 301L927 301L742 301L556 301L371 301L185 301L0 301Z" fill="#4d294d"></path><path d="M0 265L185 286L371 274L556 286L742 284L927 277L1113 283L1298 265L1298 301L1113 301L927 301L742 301L556 301L371 301L185 301L0 301Z" fill="#191825"></path></svg>