<svg id="visual" viewBox="0 0 1280 160" width="1280" height="160" xmlns="http://www.w3.org/2000/svg" xmlns:xlink="http://www.w3.org/1999/xlink" version="1.1"><rect x="0" y="0" width="1280" height="160" fill="#191825"></rect><path d="M0 69L71 69L71 79L142 79L142 61L213 61L213 117L284 117L284 72L356 72L356 57L427 57L427 97L498 97L498 47L569 47L569 110L640 110L640 69L711 69L711 101L782 101L782 103L853 103L853 84L924 84L924 73L996 73L996 81L1067 81L1067 86L1138 86L1138 125L1209 125L1209 89L1280 89L1280 77L1280 0L1280 0L1209 0L1209 0L1138 0L1138 0L1067 0L1067 0L996 0L996 0L924 0L924 0L853 0L853 0L782 0L782 0L711 0L711 0L640 0L640 0L569 0L569 0L498 0L498 0L427 0L427 0L356 0L356 0L284 0L284 0L213 0L213 0L142 0L142 0L71 0L71 0L0 0Z" fill="#e384ff"></path><path d="M0 43L71 43L71 42L142 42L142 103L213 103L213 80L284 80L284 92L356 92L356 85L427 85L427 106L498 106L498 103L569 103L569 41L640 41L640 38L711 38L711 96L782 96L782 57L853 57L853 95L924 95L924 74L996 74L996 114L1067 114L1067 72L1138 72L1138 84L1209 84L1209 84L1280 84L1280 44L1280 0L1280 0L1209 0L1209 0L1138 0L1138 0L1067 0L1067 0L996 0L996 0L924 0L924 0L853 0L853 0L782 0L782 0L711 0L711 0L640 0L640 0L569 0L569 0L498 0L498 0L427 0L427 0L356 0L356 0L284 0L284 0L213 0L213 0L142 0L142 0L71 0L71 0L0 0Z" fill="#d078ff"></path><path d="M0 30L71 30L71 51L142 51L142 28L213 28L213 58L284 58L284 86L356 86L356 25L427 25L427 31L498 31L498 79L569 79L569 48L640 48L640 88L711 88L711 51L782 51L782 60L853 60L853 73L924 73L924 80L996 80L996 28L1067 28L1067 77L1138 77L1138 86L1209 86L1209 46L1280 46L1280 86L1280 0L1280 0L1209 0L1209 0L1138 0L1138 0L1067 0L1067 0L996 0L996 0L924 0L924 0L853 0L853 0L782 0L782 0L711 0L711 0L640 0L640 0L569 0L569 0L498 0L498 0L427 0L427 0L356 0L356 0L284 0L284 0L213 0L213 0L142 0L142 0L71 0L71 0L0 0Z" fill="#bb6eff"></path><path d="M0 35L71 35L71 25L142 25L142 21L213 21L213 53L284 53L284 24L356 24L356 53L427 53L427 59L498 59L498 43L569 43L569 49L640 49L640 38L711 38L711 34L782 34L782 38L853 38L853 67L924 67L924 50L996 50L996 39L1067 39L1067 47L1138 47L1138 48L1209 48L1209 33L1280 33L1280 59L1280 0L1280 0L1209 0L1209 0L1138 0L1138 0L1067 0L1067 0L996 0L996 0L924 0L924 0L853 0L853 0L782 0L782 0L711 0L711 0L640 0L640 0L569 0L569 0L498 0L498 0L427 0L427 0L356 0L356 0L284 0L284 0L213 0L213 0L142 0L142 0L71 0L71 0L0 0Z" fill="#a365ff"></path><path d="M0 18L71 18L71 9L142 9L142 23L213 23L213 22L284 22L284 17L356 17L356 23L427 23L427 25L498 25L498 22L569 22L569 16L640 16L640 36L711 36L711 13L782 13L782 9L853 9L853 22L924 22L924 31L996 31L996 35L1067 35L1067 9L1138 9L1138 38L1209 38L1209 23L1280 23L1280 25L1280 0L1280 0L1209 0L1209 0L1138 0L1138 0L1067 0L1067 0L996 0L996 0L924 0L924 0L853 0L853 0L782 0L782 0L711 0L711 0L640 0L640 0L569 0L569 0L498 0L498 0L427 0L427 0L356 0L356 0L284 0L284 0L213 0L213 0L142 0L142 0L71 0L71 0L0 0Z" fill="#865dff"></path></svg>