<svg id="visual" viewBox="0 0 1300 160" width="1300" height="160" xmlns="http://www.w3.org/2000/svg" xmlns:xlink="http://www.w3.org/1999/xlink" version="1.1"><rect x="0" y="0" width="1300" height="160" fill="#2a2a2c"></rect><path d="M0 93L144 90L289 80L433 100L578 106L722 71L867 100L1011 77L1156 92L1300 90L1300 161L1156 161L1011 161L867 161L722 161L578 161L433 161L289 161L144 161L0 161Z" fill="#f5730a"></path><path d="M0 107L144 114L289 94L433 88L578 97L722 109L867 108L1011 110L1156 108L1300 85L1300 161L1156 161L1011 161L867 161L722 161L578 161L433 161L289 161L144 161L0 161Z" fill="#d34048"></path><path d="M0 115L144 117L289 107L433 120L578 123L722 100L867 107L1011 120L1156 101L1300 104L1300 161L1156 161L1011 161L867 161L722 161L578 161L433 161L289 161L144 161L0 161Z" fill="#942f5b"></path><path d="M0 127L144 139L289 132L433 127L578 120L722 132L867 134L1011 128L1156 122L1300 118L1300 161L1156 161L1011 161L867 161L722 161L578 161L433 161L289 161L144 161L0 161Z" fill="#4d294d"></path><path d="M0 144L144 137L289 143L433 133L578 148L722 141L867 136L1011 144L1156 137L1300 141L1300 161L1156 161L1011 161L867 161L722 161L578 161L433 161L289 161L144 161L0 161Z" fill="#191825"></path></svg>