<svg xmlns="http://www.w3.org/2000/svg" xmlns:xlink="http://www.w3.org/1999/xlink" width="305" zoomAndPan="magnify" viewBox="0 0 228.75 124.499996" height="166" preserveAspectRatio="xMidYMid meet" version="1.0"><defs><g/></defs><path stroke-linecap="butt" transform="matrix(1.235954, 0, 0, 1.235954, 28.533346, 31.187802)" fill="none" stroke-linejoin="miter" d="M 35.968117 47.334778 L 35.968117 27.335044 L 29.302593 27.335044 L 29.302593 20.669519 L 22.633908 20.669519 L 22.633908 0.669785 L 35.968117 0.669785 L 35.968117 20.669519 L 49.299167 20.669519 L 49.299167 0.669785 L 62.633377 0.669785 L 62.633377 20.669519 L 55.964691 20.669519 L 55.964691 27.335044 L 49.299167 27.335044 L 49.299167 47.334778 Z M 69.295741 47.334778 L 69.295741 0.669785 L 109.29521 0.669785 L 109.29521 7.335309 L 115.960734 7.335309 L 115.960734 27.335044 L 109.29521 27.335044 L 109.29521 34.000568 L 82.62995 34.000568 L 82.62995 47.334778 Z M 82.62995 27.335044 L 102.626524 27.335044 L 102.626524 7.335309 L 82.62995 7.335309 Z M 82.62995 27.335044 " stroke="#7f2be6" stroke-width="3.999998" stroke-opacity="1" stroke-miterlimit="4"/><g fill="#865dff" fill-opacity="1"><g transform="translate(48.269985, 97.929313)"><g><path d="M 24.71875 -8.234375 L 24.71875 -32.953125 L 16.484375 -32.953125 L 16.484375 -41.1875 L 8.234375 -41.1875 L 8.234375 -65.90625 L 24.71875 -65.90625 L 24.71875 -41.1875 L 41.1875 -41.1875 L 41.1875 -65.90625 L 57.671875 -65.90625 L 57.671875 -41.1875 L 49.4375 -41.1875 L 49.4375 -32.953125 L 41.1875 -32.953125 L 41.1875 -8.234375 Z M 24.71875 -8.234375 "/></g></g></g><g fill="#865dff" fill-opacity="1"><g transform="translate(114.180976, 97.929313)"><g><path d="M 0 -8.234375 L 0 -65.90625 L 49.4375 -65.90625 L 49.4375 -57.671875 L 57.671875 -57.671875 L 57.671875 -32.953125 L 49.4375 -32.953125 L 49.4375 -24.71875 L 16.484375 -24.71875 L 16.484375 -8.234375 Z M 16.484375 -32.953125 L 41.1875 -32.953125 L 41.1875 -57.671875 L 16.484375 -57.671875 Z M 16.484375 -32.953125 "/></g></g></g><path stroke-linecap="butt" transform="matrix(1.235954, 0, 0, 1.235954, 19.251326, 23.532546)" fill="none" stroke-linejoin="miter" d="M 43.468641 47.333974 L 43.468641 27.334239 L 36.799956 27.334239 L 36.799956 20.668715 L 30.134431 20.668715 L 30.134431 0.66898 L 43.468641 0.66898 L 43.468641 20.668715 L 56.79969 20.668715 L 56.79969 0.66898 L 70.1339 0.66898 L 70.1339 20.668715 L 63.465215 20.668715 L 63.465215 27.334239 L 56.79969 27.334239 L 56.79969 47.333974 Z M 76.796264 47.333974 L 76.796264 0.66898 L 116.795733 0.66898 L 116.795733 7.337665 L 123.461257 7.337665 L 123.461257 27.334239 L 116.795733 27.334239 L 116.795733 33.999764 L 90.130474 33.999764 L 90.130474 47.333974 Z M 90.130474 27.334239 L 110.127048 27.334239 L 110.127048 7.337665 L 90.130474 7.337665 Z M 90.130474 27.334239 " stroke="#865dff" stroke-width="3.999998" stroke-opacity="1" stroke-miterlimit="4"/><g fill="#ffa3fd" fill-opacity="1"><g transform="translate(48.257619, 90.274058)"><g><path d="M 24.71875 -8.234375 L 24.71875 -32.953125 L 16.484375 -32.953125 L 16.484375 -41.1875 L 8.234375 -41.1875 L 8.234375 -65.90625 L 24.71875 -65.90625 L 24.71875 -41.1875 L 41.1875 -41.1875 L 41.1875 -65.90625 L 57.671875 -65.90625 L 57.671875 -41.1875 L 49.4375 -41.1875 L 49.4375 -32.953125 L 41.1875 -32.953125 L 41.1875 -8.234375 Z M 24.71875 -8.234375 "/></g></g></g><g fill="#ffa3fd" fill-opacity="1"><g transform="translate(114.16861, 90.274058)"><g><path d="M 0 -8.234375 L 0 -65.90625 L 49.4375 -65.90625 L 49.4375 -57.671875 L 57.671875 -57.671875 L 57.671875 -32.953125 L 49.4375 -32.953125 L 49.4375 -24.71875 L 16.484375 -24.71875 L 16.484375 -8.234375 Z M 16.484375 -32.953125 L 41.1875 -32.953125 L 41.1875 -57.671875 L 16.484375 -57.671875 Z M 16.484375 -32.953125 "/></g></g></g></svg>