<?xml version="1.0" standalone="no"?>
<!DOCTYPE svg PUBLIC "-//W3C//DTD SVG 20010904//EN"
 "http://www.w3.org/TR/2001/REC-SVG-20010904/DTD/svg10.dtd">
<svg version="1.0" xmlns="http://www.w3.org/2000/svg"
 width="499.000000pt" height="346.000000pt" viewBox="0 0 499.000000 346.000000"
 preserveAspectRatio="xMidYMid meet">

<g transform="translate(0.000000,346.000000) scale(0.100000,-0.100000)"
fill="#000000" stroke="none">
<path d="M3023 3345 c-90 -25 -155 -65 -226 -138 -60 -62 -72 -69 -105 -69
-60 0 -62 1 -62 22 0 29 -26 76 -45 84 -27 10 -115 7 -157 -6 -50 -15 -100
-70 -126 -141 -28 -73 -64 -253 -107 -521 -33 -211 -36 -221 -79 -301 -76
-138 -173 -255 -213 -255 -17 0 -24 46 -17 100 4 34 3 55 -6 65 -11 13 -10 14
1 10 9 -3 15 1 16 13 1 10 7 46 13 80 6 35 8 67 4 74 -5 7 -3 8 6 3 10 -6 12
-3 8 13 -4 12 -2 25 4 28 5 3 8 15 5 25 -3 10 -1 22 4 25 6 3 5 12 -3 22 -10
12 -10 14 0 8 12 -7 15 3 15 47 0 9 4 17 9 17 5 0 8 10 7 23 -2 12 0 28 4 35
5 7 3 12 -3 12 -7 0 -5 6 3 15 45 44 27 325 -20 325 -7 0 -12 6 -10 13 1 6 -4
11 -10 10 -7 -2 -13 2 -13 7 0 5 -3 9 -7 9 -5 -1 -22 -1 -39 0 -25 1 -33 7
-48 41 -22 50 -59 70 -127 70 -173 0 -280 -184 -354 -610 -14 -80 -30 -174
-36 -210 -22 -136 -97 -240 -197 -274 -47 -16 -105 -22 -87 -8 6 4 10 57 10
122 0 107 6 178 21 240 3 14 7 46 8 71 2 25 6 51 10 58 4 6 6 63 5 127 -3 128
-18 178 -62 207 -31 20 -41 22 -31 5 5 -10 4 -10 -6 -1 -9 8 -19 9 -32 2 -15
-8 -20 -5 -28 16 -6 15 -10 30 -10 35 0 5 -12 22 -26 39 -21 25 -33 31 -67 31
-155 0 -272 -185 -352 -555 -60 -279 -80 -494 -65 -687 25 -305 81 -432 223
-504 26 -14 56 -32 66 -42 48 -46 75 -61 88 -50 7 6 16 8 20 4 3 -3 1 -6 -5
-6 -22 0 -12 -16 17 -27 22 -8 33 -8 42 1 9 8 10 8 6 0 -4 -7 3 -14 16 -18 31
-8 89 -7 84 2 -3 4 12 6 34 6 21 -1 39 2 39 7 0 5 3 8 8 8 21 -4 32 2 26 14
-5 9 -4 9 6 0 9 -8 21 -8 47 3 57 24 103 58 98 72 -3 7 0 10 6 7 6 -4 17 1 24
11 27 35 15 1 -15 -47 -67 -103 -179 -185 -308 -226 -69 -21 -96 -25 -160 -21
-77 5 -136 23 -126 39 3 5 0 9 -6 9 -6 0 -8 4 -5 10 3 5 1 10 -5 10 -6 0 -10
6 -9 13 6 51 -24 71 -54 35 -10 -13 -15 -16 -11 -8 7 13 5 13 -8 2 -15 -12
-21 -7 -48 40 -16 29 -33 63 -36 75 -12 46 -64 21 -112 -54 -56 -88 -75 -164
-76 -298 0 -109 3 -128 31 -211 18 -51 46 -115 63 -143 41 -66 123 -138 199
-176 33 -16 61 -35 61 -42 0 -6 9 -15 20 -18 11 -3 20 -10 20 -14 0 -13 99
-53 112 -45 6 4 8 3 5 -3 -19 -30 312 -42 348 -13 8 7 15 10 15 7 0 -3 15 -1
33 4 17 6 43 12 57 15 13 3 28 11 32 17 4 7 8 9 8 4 0 -12 95 43 141 82 39 34
41 39 30 61 -12 24 -12 24 4 5 16 -20 17 -19 46 13 17 19 28 40 25 48 -3 8 -2
13 3 10 4 -3 18 9 31 26 12 17 16 27 9 23 -8 -5 -5 3 7 16 28 32 70 116 52
103 -8 -5 -6 -1 5 8 10 10 16 22 12 28 -3 5 -1 10 6 10 7 0 9 3 6 7 -4 3 0 17
8 30 9 13 13 23 9 23 -4 0 -1 7 6 15 7 8 9 15 5 15 -4 0 -2 7 5 15 7 8 10 15
7 15 -3 0 0 15 8 33 11 27 11 37 2 47 -9 10 -9 11 0 6 12 -7 32 49 39 109 1
17 3 30 4 30 4 0 18 78 26 140 2 17 7 47 12 67 7 26 6 38 -2 42 -7 3 -7 5 2 5
6 1 12 10 12 22 0 11 -4 17 -10 14 -5 -3 -7 0 -4 8 7 18 21 17 55 -6 38 -25
89 -39 89 -24 0 7 4 6 9 -3 5 -8 4 -49 -1 -90 -15 -119 -5 -275 21 -336 25
-58 61 -96 106 -111 17 -6 39 -14 50 -18 11 -5 34 -8 50 -7 20 0 23 -1 10 -5
-35 -9 -36 -18 -4 -49 18 -16 29 -22 25 -14 -5 10 -3 9 6 -2 19 -22 125 -38
113 -17 -6 11 -5 12 6 2 7 -7 24 -13 39 -13 27 0 126 57 116 67 -3 3 2 13 12
22 38 35 77 138 86 227 1 11 5 24 8 30 3 5 12 62 19 127 10 92 10 123 1 137
-10 16 -9 18 3 13 12 -4 15 2 14 23 -1 45 13 429 17 433 1 2 17 -13 34 -33 33
-37 121 -85 164 -88 13 -1 22 -6 20 -10 -3 -4 -12 -4 -22 -1 -29 10 22 -34 71
-62 73 -40 209 -38 320 6 65 26 148 79 141 91 -3 4 -10 5 -16 2 -7 -4 -8 -2
-4 5 6 9 11 9 22 0 11 -9 22 -3 54 30 23 23 38 46 35 51 -3 5 0 7 8 5 7 -3 22
4 32 15 17 18 17 23 5 32 -13 8 -12 9 2 5 10 -4 23 4 35 20 10 14 24 31 31 39
7 8 14 23 15 33 0 11 6 19 12 18 5 -1 9 6 9 15 -1 10 3 16 10 15 6 -1 10 4 9
11 -2 6 1 12 5 12 16 0 31 47 20 58 -7 7 -4 10 8 9 11 -1 18 3 17 9 -1 7 8 9
22 6 14 -2 25 0 25 4 0 5 15 10 33 11 40 2 127 40 127 55 0 6 3 8 7 5 3 -4 12
1 20 11 9 10 11 11 7 2 -7 -13 -5 -13 9 -1 9 7 14 18 10 24 -3 6 -1 7 6 3 15
-10 43 13 34 28 -3 6 -2 8 2 3 5 -4 19 3 32 15 17 16 20 24 11 35 -8 10 -8 12
4 8 9 -4 18 1 21 9 4 9 10 16 15 16 5 0 3 -28 -4 -62 -15 -72 -6 -137 28 -205
27 -54 71 -94 141 -129 29 -15 54 -31 55 -35 2 -5 8 -7 13 -3 5 3 9 -2 9 -10
0 -8 9 -20 21 -26 17 -9 25 -8 42 7 22 18 22 18 4 -4 -19 -22 -8 -41 15 -27 7
4 8 3 4 -4 -10 -17 71 -35 141 -30 47 3 67 9 79 23 8 11 13 14 9 8 -3 -7 -1
-13 4 -13 6 0 11 5 11 10 0 6 3 9 8 8 14 -4 62 34 55 45 -3 5 -1 7 4 4 12 -8
46 27 36 36 -3 4 -1 7 6 7 18 0 42 62 29 78 -8 9 -7 11 5 6 11 -4 15 0 13 13
-2 10 1 24 7 31 5 7 7 30 3 55 -4 23 -8 48 -8 55 -1 6 -5 12 -10 12 -4 0 -7 3
-7 8 4 25 -5 46 -41 91 -22 28 -47 51 -55 51 -8 0 -15 4 -15 10 0 5 -12 13
-27 16 -16 4 -46 25 -68 46 -67 65 -118 90 -196 96 -85 6 -148 -11 -204 -54
-45 -33 -52 -27 -22 20 10 15 15 31 12 36 -3 5 0 12 6 15 5 4 8 14 5 22 -3 8
-2 12 3 9 14 -9 22 25 10 40 -9 12 -9 13 4 9 16 -7 33 27 23 44 -4 5 -1 11 6
13 14 5 14 76 0 90 -21 21 -85 36 -114 26 -15 -6 -25 -14 -22 -19 3 -5 1 -9
-5 -9 -7 0 -8 17 -4 45 7 54 -10 79 -66 96 -53 16 -83 0 -118 -63 -33 -57 -79
-108 -97 -108 -6 0 -3 7 7 14 13 10 17 28 17 80 0 56 -3 66 -17 67 -11 0 -13
3 -5 6 6 2 12 11 12 19 0 10 -5 12 -12 8 -10 -6 -10 -4 -2 7 12 15 7 82 -6 74
-4 -2 -6 7 -4 21 3 28 -13 83 -29 99 -7 7 -8 7 -4 0 3 -6 -3 -11 -14 -11 -19
0 -18 1 3 18 13 10 17 18 10 18 -6 0 -11 3 -10 8 4 15 -14 52 -23 46 -5 -3 -9
-2 -8 3 6 37 -58 122 -81 108 -9 -5 -11 -4 -6 4 8 12 -50 71 -69 71 -6 0 -38
23 -70 51 -33 28 -89 65 -125 82 -57 28 -77 32 -165 34 -65 2 -118 -2 -152
-12z m624 -517 c-3 -7 -5 -2 -5 12 0 14 2 19 5 13 2 -7 2 -19 0 -25z m-586
-65 c13 -16 12 -17 -3 -4 -10 7 -18 15 -18 17 0 8 8 3 21 -13z m-7 -22 c3 -5
-1 -14 -8 -20 -12 -10 -14 -9 -11 6 2 10 4 19 4 21 2 5 10 2 15 -7z m-284 -35
c0 -2 -8 -10 -17 -17 -16 -13 -17 -12 -4 4 13 16 21 21 21 13z m361 -33 c14
-37 11 -133 -6 -190 -32 -109 -124 -200 -222 -222 -59 -12 -72 -3 -78 58 -2
24 -7 46 -10 49 -2 3 -1 10 4 16 5 6 11 30 13 54 3 23 7 45 11 48 4 4 2 13 -3
19 -7 9 -5 17 7 26 17 13 17 13 3 -6 -14 -18 -14 -19 2 -7 9 7 15 22 13 34 -3
11 -2 18 2 15 5 -6 33 20 51 48 12 18 69 54 96 61 14 3 29 10 31 15 3 4 13 5
22 2 10 -4 14 -2 10 4 -4 6 3 8 19 5 15 -3 29 -15 35 -29z m-400 -36 c-10 -9
-11 -8 -5 6 3 10 9 15 12 12 3 -3 0 -11 -7 -18z m-944 -149 c-3 -8 -6 -5 -6 6
-1 11 2 17 5 13 3 -3 4 -12 1 -19z m1918 -8 c-3 -5 -12 -10 -18 -10 -7 0 -6 4
3 10 19 12 23 12 15 0z m-45 -10 c0 -5 -4 -10 -10 -10 -5 0 -10 5 -10 10 0 6
5 10 10 10 6 0 10 -4 10 -10z m-914 -145 c-1 -8 -5 -17 -8 -21 -5 -4 -4 16 1
34 3 9 9 -1 7 -13z m1379 -3 c-3 -3 -11 0 -18 7 -9 10 -8 11 6 5 10 -3 15 -9
12 -12z m-215 -76 c0 -2 -8 -10 -17 -17 -16 -13 -17 -12 -4 4 13 16 21 21 21
13z m-110 -110 c0 -2 -8 -10 -17 -17 -16 -13 -17 -12 -4 4 13 16 21 21 21 13z
m857 -11 c0 -8 -4 -12 -9 -9 -5 3 -6 10 -3 15 9 13 12 11 12 -6z m-912 -35
c-3 -5 -12 -10 -18 -10 -7 0 -6 4 3 10 19 12 23 12 15 0z m-45 -25 c-7 -8 -20
-15 -29 -15 -11 0 -8 5 9 14 33 19 35 19 20 1z m-1865 -45 c13 -6 15 -9 5 -9
-8 0 -22 4 -30 9 -18 12 -2 12 25 0z m1695 -14 c0 -2 -7 -7 -16 -10 -8 -3 -12
-2 -9 4 6 10 25 14 25 6z m-84 -124 c-17 -16 -18 -16 -5 5 7 12 15 20 18 17 3
-2 -3 -12 -13 -22z m1130 -74 c4 -7 3 -10 -1 -5 -5 4 -18 -1 -29 -10 -21 -18
-21 -18 -2 5 22 26 23 26 32 10z m-1193 -23 c-3 -9 -8 -14 -10 -11 -3 3 -2 9
2 15 9 16 15 13 8 -4z m1087 -45 c-8 -5 -19 -10 -25 -10 -5 0 -3 5 5 10 8 5
20 10 25 10 6 0 3 -5 -5 -10z m-1190 -64 c0 -2 -8 -10 -17 -17 -16 -13 -17
-12 -4 4 13 16 21 21 21 13z m-102 -231 c-3 -3 -9 2 -12 12 -6 14 -5 15 5 6 7
-7 10 -15 7 -18z m-1988 -37 c-23 -35 -23 -31 -1 15 8 15 16 25 19 22 2 -2 -5
-19 -18 -37z m1277 -30 c-3 -8 -6 -5 -6 6 -1 11 2 17 5 13 3 -3 4 -12 1 -19z
m-507 -12 c0 -2 -9 -6 -20 -9 -11 -3 -18 -1 -14 4 5 9 34 13 34 5z m-805 -15
c3 -5 2 -12 -3 -15 -5 -3 -9 1 -9 9 0 17 3 19 12 6z m519 -30 c-2 -3 -12 3
-22 13 -16 17 -16 18 5 5 12 -7 20 -15 17 -18z m-597 -46 c0 -8 -4 -12 -9 -9
-5 3 -6 10 -3 15 9 13 12 11 12 -6z m-32 -15 c-3 -5 -20 -19 -38 -30 -32 -22
-32 -22 3 9 37 32 45 37 35 21z m-228 -86 c-3 -3 -12 -4 -19 -1 -8 3 -5 6 6 6
11 1 17 -2 13 -5z m-54 -11 c-7 -2 -19 -2 -25 0 -7 3 -2 5 12 5 14 0 19 -2 13
-5z m281 -41 c3 -5 -1 -9 -9 -9 -8 0 -12 4 -9 9 3 4 7 8 9 8 2 0 6 -4 9 -8z
m-439 -112 c3 -6 -1 -7 -9 -4 -18 7 -21 14 -7 14 6 0 13 -4 16 -10z m1830 -20
c3 -5 1 -10 -4 -10 -6 0 -11 5 -11 10 0 6 2 10 4 10 3 0 8 -4 11 -10z m-728
-115 c0 -8 -4 -12 -9 -9 -5 3 -6 10 -3 15 9 13 12 11 12 -6z m804 -148 c-10
-9 -11 -8 -5 6 3 10 9 15 12 12 3 -3 0 -11 -7 -18z m-181 -10 c0 -2 -10 -12
-22 -23 l-23 -19 19 23 c18 21 26 27 26 19z m110 -61 c0 -2 -8 -10 -17 -17
-16 -13 -17 -12 -4 4 13 16 21 21 21 13z m29 -9 c-2 -1 -13 -9 -24 -17 -19
-14 -19 -14 -6 3 7 9 18 17 24 17 6 0 8 -1 6 -3z m-1099 -201 c0 -2 -8 -10
-17 -17 -16 -13 -17 -12 -4 4 13 16 21 21 21 13z m-93 -94 c-10 -10 -14 -22
-10 -27 5 -4 2 -5 -5 -1 -11 6 -10 12 4 27 9 10 19 19 22 19 3 0 -2 -8 -11
-18z m-47 -178 c0 -8 -19 -13 -24 -6 -3 5 1 9 9 9 8 0 15 -2 15 -3z"/>
</g>
</svg>
